<svg width="17" height="17" viewBox="0 0 17 17" fill="none" xmlns="http://www.w3.org/2000/svg">
<path id="Vector" d="M2.58442 16.7079C2.09553 16.7079 1.67686 16.534 1.32842 16.1861C0.980566 15.8377 0.806641 15.419 0.806641 14.9301V3.819C0.806641 3.59677 0.843678 3.39677 0.917752 3.219C0.991826 3.04122 1.08812 2.87085 1.20664 2.70789L2.45109 1.19677C2.5696 1.03381 2.71775 0.911441 2.89553 0.829664C3.07331 0.748478 3.2659 0.707886 3.47331 0.707886H14.14C14.3474 0.707886 14.54 0.748478 14.7178 0.829664C14.8955 0.911441 15.0437 1.03381 15.1622 1.19677L16.4066 2.70789C16.5252 2.87085 16.6215 3.04122 16.6955 3.219C16.7696 3.39677 16.8066 3.59677 16.8066 3.819V14.9301C16.8066 15.419 16.6327 15.8377 16.2849 16.1861C15.9364 16.534 15.5178 16.7079 15.0289 16.7079H2.58442ZM2.93997 3.37455H14.6733L13.9178 2.48566H3.69553L2.93997 3.37455ZM2.58442 14.9301H15.0289V5.15233H2.58442V14.9301ZM8.80664 13.6634C8.92516 13.6634 9.03627 13.6448 9.13998 13.6074C9.24368 13.5707 9.33997 13.5079 9.42886 13.419L11.74 11.1079C11.9029 10.9449 11.9844 10.7375 11.9844 10.4857C11.9844 10.2338 11.9029 10.0264 11.74 9.86344C11.577 9.70048 11.3696 9.619 11.1178 9.619C10.8659 9.619 10.6585 9.70048 10.4955 9.86344L9.69553 10.6634V7.819C9.69553 7.56714 9.61049 7.35589 9.44042 7.18522C9.26975 7.01514 9.05849 6.93011 8.80664 6.93011C8.55479 6.93011 8.34383 7.01514 8.17375 7.18522C8.00309 7.35589 7.91775 7.56714 7.91775 7.819V10.6634L7.11775 9.86344C6.95479 9.70048 6.74738 9.619 6.49553 9.619C6.24368 9.619 6.03627 9.70048 5.87331 9.86344C5.71034 10.0264 5.62886 10.2338 5.62886 10.4857C5.62886 10.7375 5.71034 10.9449 5.87331 11.1079L8.18442 13.419C8.27331 13.5079 8.36961 13.5707 8.47331 13.6074C8.57701 13.6448 8.68812 13.6634 8.80664 13.6634Z" fill="black"/>
</svg>
