<svg width="17" height="16" viewBox="0 0 17 16" fill="none" xmlns="http://www.w3.org/2000/svg">
<path id="Vector" d="M8.5 0C4.084 0 0.5 3.584 0.5 8C0.5 12.416 4.084 16 8.5 16C12.916 16 16.5 12.416 16.5 8C16.5 3.584 12.916 0 8.5 0ZM2.1 8C2.1 4.464 4.964 1.6 8.5 1.6C9.98 1.6 11.34 2.104 12.42 2.952L3.452 11.92C2.57341 10.8025 2.09711 9.42151 2.1 8ZM8.5 14.4C7.02 14.4 5.66 13.896 4.58 13.048L13.548 4.08C14.4266 5.19749 14.9029 6.57849 14.9 8C14.9 11.536 12.036 14.4 8.5 14.4Z" fill="#FF0000"/>
</svg>
