<svg width="17" height="17" viewBox="0 0 17 17" fill="none" xmlns="http://www.w3.org/2000/svg">
<path id="Vector" d="M8.80664 0.707886C4.39064 0.707886 0.806641 4.29189 0.806641 8.70789C0.806641 13.1239 4.39064 16.7079 8.80664 16.7079C13.2226 16.7079 16.8066 13.1239 16.8066 8.70789C16.8066 4.29189 13.2226 0.707886 8.80664 0.707886ZM2.40664 8.70789C2.40664 5.17189 5.27064 2.30789 8.80664 2.30789C10.2866 2.30789 11.6466 2.81189 12.7266 3.65989L3.75864 12.6279C2.88005 11.5104 2.40375 10.1294 2.40664 8.70789ZM8.80664 15.1079C7.32664 15.1079 5.96664 14.6039 4.88664 13.7559L13.8546 4.78789C14.7332 5.90538 15.2095 7.28637 15.2066 8.70789C15.2066 12.2439 12.3426 15.1079 8.80664 15.1079Z" fill="black"/>
</svg>
