<svg width="52" height="52" viewBox="0 0 52 52" fill="none" xmlns="http://www.w3.org/2000/svg">
<g id="Savings">
<g id="Group">
<path id="Vector" d="M30.0738 14.2261C30.9528 12.7978 31.9392 11.1793 31.8301 9.35695C31.7403 7.84567 30.6947 6.30966 29.1831 6.13015C27.8434 5.98313 26.6016 6.91457 25.2616 7.06162C23.6284 7.25366 20.9227 5.90221 19.6981 7.64173C18.8031 8.91056 19.7719 10.738 21.0706 14.2264L30.0738 14.2261Z" fill="#20DF7F"/>
<path id="Vector_2" d="M23.6621 29.0902C23.6621 29.9809 24.3337 30.2533 25.2341 30.5356V27.7721C24.4123 27.8439 23.6621 28.263 23.6621 29.0902V29.0902Z" fill="#20DF7F"/>
<path id="Vector_3" d="M26.2822 32.7723V35.6469C27.1441 35.5603 27.9856 35.1403 27.9856 34.2739C27.9856 33.3436 27.2459 33.0541 26.2822 32.7723Z" fill="#20DF7F"/>
<path id="Vector_4" d="M31.4458 17.3064C30.9218 17.5871 30.5141 17.464 29.9018 17.4942C30.2856 18.5202 30.9293 19.1376 30.5799 20.1084C30.2993 20.847 29.5052 21.343 28.6193 21.1214C28.5925 21.2031 28.9045 23.3598 26.9856 23.3598C26.0786 23.3598 25.3518 22.6327 25.3518 21.7261V17.4943C20.8981 17.4105 20.5878 17.6903 19.8783 17.2247C15.1727 20.0595 11.9131 26.2848 11.9131 33.5148C11.9131 43.416 18.0402 45.3278 25.597 45.3278C33.1457 45.3278 39.2809 43.4162 39.2809 33.5148C39.2803 26.3503 36.0698 20.1745 31.4455 17.3064L31.4458 17.3064ZM26.2821 37.356V38.5057H25.2338V37.3398C23.7376 37.191 22.3948 36.6106 21.2046 35.5994L22.4002 34.2098C23.3177 34.9871 24.2622 35.4498 25.2339 35.5994V32.5006C23.1946 32.0259 21.6632 31.3725 21.6632 29.2823C21.6632 27.3057 23.2679 26.1629 25.2339 26.064V25.2654H26.2821V26.0797C27.4831 26.1655 28.6185 26.5644 29.6887 27.2782L28.6239 28.7476C27.9036 28.2472 27.1226 27.9384 26.2821 27.8207V30.8233H26.3314C28.4023 31.298 29.9833 31.9969 29.9833 34.1216C29.9833 36.158 28.3022 37.2596 26.2821 37.3562L26.2821 37.356Z" fill="#20DF7F"/>
<path id="Vector_5" d="M31.0948 15.8629C31.0948 15.6373 30.9121 15.4543 30.6862 15.4543L20.7792 15.4546C20.5535 15.4546 20.3706 15.6373 20.3706 15.8632C20.3706 16.0889 20.5532 16.2718 20.7792 16.2718H26.5733V21.7285C26.5733 21.9542 26.7559 22.1371 26.9818 22.1371C27.2075 22.1371 27.3904 21.9545 27.3904 21.7285V16.9246L28.6723 19.7138C28.7664 19.9186 29.0091 20.0084 29.214 19.9141C29.4191 19.8201 29.5086 19.5773 29.4143 19.3724L27.9891 16.2721H30.6859C30.9116 16.2715 31.0945 16.0889 31.0945 15.863L31.0948 15.8629Z" fill="#20DF7F"/>
</g>
</g>
</svg>
