<svg width="19" height="19" viewBox="0 0 19 19" fill="none" xmlns="http://www.w3.org/2000/svg">
<g id="ep:view" clip-path="url(#clip0_563_673)">
<path id="Vector" d="M9.50049 2.96875C15.438 2.96875 19.0005 9.5 19.0005 9.5C19.0005 9.5 15.438 16.0312 9.50049 16.0312C3.56299 16.0312 0.000488281 9.5 0.000488281 9.5C0.000488281 9.5 3.56299 2.96875 9.50049 2.96875ZM9.50049 4.15625C5.32049 4.15625 2.37311 8.01681 1.3958 9.5C2.37193 10.982 5.3193 14.8438 9.50049 14.8438C13.6805 14.8438 16.6279 10.9832 17.6052 9.5C16.6291 8.018 13.6817 4.15625 9.50049 4.15625ZM9.50049 5.34375C10.6028 5.34375 11.66 5.78164 12.4394 6.56109C13.2188 7.34054 13.6567 8.39769 13.6567 9.5C13.6567 10.6023 13.2188 11.6595 12.4394 12.4389C11.66 13.2184 10.6028 13.6562 9.50049 13.6562C8.39818 13.6562 7.34102 13.2184 6.56158 12.4389C5.78213 11.6595 5.34424 10.6023 5.34424 9.5C5.34424 8.39769 5.78213 7.34054 6.56158 6.56109C7.34102 5.78164 8.39818 5.34375 9.50049 5.34375ZM9.50049 6.53125C8.71342 6.53219 7.95885 6.84527 7.40231 7.40182C6.84576 7.95836 6.53268 8.71293 6.53174 9.5C6.53174 11.1364 7.86293 12.4688 9.50049 12.4688C11.1381 12.4688 12.4692 11.1364 12.4692 9.5C12.4692 7.86363 11.1381 6.53125 9.50049 6.53125Z" fill="black"/>
</g>
<defs>
<clipPath id="clip0_563_673">
<rect width="19" height="19" fill="white"/>
</clipPath>
</defs>
</svg>
