<svg width="26" height="26" viewBox="0 0 26 26" fill="none" xmlns="http://www.w3.org/2000/svg">
<g id="fontisto:wallet" clip-path="url(#clip0_5481_1050)">
<path id="Vector" d="M25.5626 14.5492H12.5257C11.8272 14.4953 11.1355 14.7188 10.6004 15.1711C10.0654 15.6234 9.72998 16.2683 9.66682 16.9661L9.66574 16.9758C9.72981 17.6828 10.0719 18.3354 10.617 18.7903C11.162 19.2451 11.8653 19.4649 12.5723 19.4014L12.5626 19.4025H25.5626C25.6444 19.4101 25.7269 19.4012 25.8053 19.3765C25.8836 19.3517 25.9563 19.3116 26.0189 19.2584C26.0816 19.2053 26.133 19.1401 26.1702 19.0668C26.2073 18.9935 26.2295 18.9136 26.2353 18.8316V15.1223C26.2141 14.9637 26.1361 14.8183 26.0157 14.7129C25.8954 14.6075 25.7409 14.5493 25.581 14.5492H25.5615H25.5626ZM12.5257 18.4903C12.2193 18.4903 11.9198 18.3995 11.6651 18.2293C11.4103 18.059 11.2118 17.8171 11.0945 17.534C10.9772 17.2509 10.9466 16.9394 11.0063 16.6389C11.0661 16.3384 11.2137 16.0624 11.4303 15.8457C11.647 15.6291 11.923 15.4815 12.2235 15.4218C12.524 15.362 12.8355 15.3927 13.1186 15.5099C13.4017 15.6272 13.6436 15.8257 13.8138 16.0805C13.9841 16.3353 14.0749 16.6348 14.0749 16.9412V16.9455C14.0749 17.7992 13.3827 18.4903 12.5301 18.4903H12.5257ZM3.56982 0V6.93767H5.05182V3.97367C5.20132 4.0105 5.37466 4.03433 5.55232 4.04083H5.55666C6.09217 4.03941 6.60535 3.82612 6.98411 3.44755C7.36288 3.06899 7.57644 2.55592 7.57816 2.02042C7.57457 1.84454 7.55058 1.66968 7.50666 1.49933L7.50991 1.51558H15.6262C15.5871 1.67974 15.5646 1.84742 15.5591 2.01608V2.02042C15.5605 2.55593 15.7738 3.06911 16.1524 3.44787C16.5309 3.82664 17.044 4.0402 17.5795 4.04192C17.7615 4.03542 17.9359 4.01158 18.1027 3.97042L18.0854 3.97367V6.93767H19.6032V0H3.56982ZM20.2412 6.09483H22.1273C21.986 5.68439 21.7384 5.31875 21.4098 5.03518C21.0811 4.75162 20.6831 4.56028 20.2564 4.48067L20.2412 4.4785V6.09483Z" fill="white"/>
<path id="Vector_2" d="M12.4269 13.741H25.3598V9.80092C25.3044 9.21644 25.0216 8.67712 24.5724 8.29919C24.1231 7.92125 23.5433 7.73498 22.958 7.7805H22.9656H2.42558C2.4081 7.76141 2.38418 7.74946 2.35842 7.74692C2.21601 7.68 2.09409 7.57621 2.00532 7.44629C1.91655 7.31637 1.86416 7.16507 1.85358 7.00808V7.00592C1.87083 6.81106 1.9472 6.62613 2.07247 6.47588C2.19774 6.32564 2.36592 6.21726 2.5545 6.16525L2.561 6.16417V4.44708C1.14508 4.51425 0 6.53467 0 9.061V23.9807C0.0558905 24.5644 0.338554 25.103 0.787248 25.4806C1.23594 25.8582 1.81485 26.0447 2.39958 26H2.392H22.932C23.5142 26.043 24.0902 25.8566 24.5369 25.4807C24.9836 25.1049 25.2657 24.5693 25.3229 23.9883L25.324 23.9796V20.0395H12.4627C10.3751 20.0395 8.6905 18.6247 8.6905 16.9076C8.6905 15.1569 10.374 13.7421 12.428 13.7421L12.4269 13.741Z" fill="white"/>
</g>
<defs>
<clipPath id="clip0_5481_1050">
<rect width="26" height="26" fill="white"/>
</clipPath>
</defs>
</svg>
