<svg width="119" height="207" viewBox="0 0 119 207" fill="none" xmlns="http://www.w3.org/2000/svg">
<g id="freepik--Character--inject-4">
<path id="Vector" d="M40.2283 203.179V196.85L27.5626 196.769L27.4551 206.339L28.24 206.391C31.7349 206.591 46.02 206.887 48.3665 206.235C50.9773 205.51 40.2283 203.179 40.2283 203.179Z" fill="#4882FD"/>
<path id="Vector_2" d="M48.664 205.643C48.664 205.747 43.9216 205.836 38.0803 205.836C32.239 205.836 27.4966 205.747 27.4966 205.643C27.4966 205.54 32.239 205.451 38.0803 205.451C43.9216 205.451 48.664 205.54 48.664 205.643Z" fill="#263238"/>
<path id="Vector_3" d="M40.4513 204.474C40.3439 204.422 40.4513 204.089 40.7074 203.734C40.9635 203.378 41.3105 203.23 41.3932 203.304C41.4758 203.379 41.3023 203.66 41.0544 203.963C40.8066 204.267 40.5587 204.526 40.4513 204.474Z" fill="#263238"/>
<path id="Vector_4" d="M41.2611 204.888C41.1454 204.888 41.2033 204.474 41.4511 204.082C41.699 203.689 42.0295 203.452 42.1204 203.512C42.2112 203.571 42.0625 203.904 41.8312 204.252C41.5998 204.6 41.3685 204.925 41.2611 204.888Z" fill="#263238"/>
<path id="Vector_5" d="M31.3134 205.614C31.2638 205.614 31.0738 205.48 30.8011 205.199C30.4683 204.838 30.0976 204.506 29.694 204.207C29.2972 203.923 28.8244 203.737 28.3225 203.667C27.9342 203.623 27.6863 203.667 27.6615 203.623C27.6368 203.578 27.8764 203.423 28.3308 203.393C28.9305 203.382 29.5155 203.56 29.9832 203.897C30.4214 204.217 30.7909 204.605 31.0738 205.044C31.2638 205.369 31.363 205.584 31.3134 205.614Z" fill="#263238"/>
<path id="Vector_6" d="M40.4926 203.282C40.5504 203.371 40.3356 203.593 39.9721 203.712C39.6085 203.83 39.2863 203.786 39.2698 203.712C39.2533 203.638 39.5094 203.482 39.8234 203.378C40.1373 203.275 40.4265 203.193 40.4926 203.282Z" fill="#263238"/>
<path id="Vector_7" d="M40.2944 202.668C40.2944 202.779 39.9639 202.868 39.5343 202.875C39.1047 202.883 38.7659 202.794 38.7742 202.69C38.7825 202.587 39.1212 202.49 39.5343 202.483C39.9474 202.475 40.2779 202.564 40.2944 202.668Z" fill="#263238"/>
<path id="Vector_8" d="M71.4173 203.179V196.85L58.7515 196.769L58.6441 206.243L59.429 206.295C62.9239 206.494 77.2173 206.887 79.5554 206.235C82.1663 205.51 71.4173 203.179 71.4173 203.179Z" fill="#4882FD"/>
<path id="Vector_9" d="M79.8532 205.658C79.8532 205.762 75.119 205.851 69.2694 205.851C63.4199 205.851 58.694 205.762 58.694 205.658C58.694 205.555 63.4281 205.466 69.2694 205.466C75.1107 205.466 79.8532 205.555 79.8532 205.658Z" fill="#263238"/>
<path id="Vector_10" d="M71.6405 204.474C71.5414 204.422 71.6405 204.089 71.8966 203.734C72.1528 203.378 72.4998 203.23 72.5824 203.304C72.665 203.379 72.4915 203.66 72.2436 203.963C71.9958 204.267 71.7479 204.526 71.6405 204.474Z" fill="#263238"/>
<path id="Vector_11" d="M72.4504 204.888C72.343 204.888 72.3926 204.474 72.6487 204.082C72.9049 203.689 73.2271 203.452 73.318 203.512C73.4088 203.571 73.2519 203.904 73.0205 204.252C72.7892 204.6 72.5661 204.925 72.4504 204.888Z" fill="#263238"/>
<path id="Vector_12" d="M62.5026 205.614C62.4531 205.614 62.2713 205.48 61.9904 205.199C61.6576 204.838 61.2868 204.506 60.8833 204.207C60.4864 203.923 60.0137 203.737 59.5118 203.667C59.1317 203.623 58.8756 203.667 58.8508 203.623C58.826 203.578 59.0656 203.423 59.52 203.393C60.1197 203.382 60.7048 203.56 61.1725 203.897C61.6129 204.214 61.9829 204.604 62.2631 205.044C62.4531 205.369 62.5522 205.584 62.5026 205.614Z" fill="#263238"/>
<path id="Vector_13" d="M71.6822 203.282C71.74 203.371 71.5252 203.593 71.1616 203.712C70.7981 203.83 70.4759 203.786 70.4594 203.712C70.4429 203.638 70.699 203.482 71.0129 203.378C71.3269 203.275 71.6161 203.193 71.6822 203.282Z" fill="#263238"/>
<path id="Vector_14" d="M71.5002 202.668C71.5002 202.779 71.1697 202.868 70.7401 202.875C70.3105 202.883 69.98 202.794 69.9882 202.69C69.9965 202.587 70.327 202.49 70.7401 202.483C71.1532 202.475 71.5002 202.564 71.5002 202.668Z" fill="#263238"/>
<path id="Vector_15" d="M118.082 15.2558C117.751 14.9523 116.933 15.1003 116.933 15.1003C117.015 14.6742 117.015 14.2386 116.933 13.8125C116.785 13.398 115.744 13.4794 115.744 13.4794C115.696 13.1304 115.696 12.7774 115.744 12.4284C115.752 12.351 115.733 12.2733 115.69 12.2057C115.648 12.1382 115.582 12.0841 115.504 12.0509C115.011 11.871 114.482 11.7853 113.951 11.7993C113.314 11.3922 115.892 8.15778 116.851 7.12157C117.809 6.08537 117.636 5.27862 116.785 5.27862C116.198 5.27862 113.191 8.38723 112.265 9.43083C111.34 10.4744 108.886 13.3758 108.803 11.0591C108.721 8.7425 107.68 6.99575 107.027 6.6997C106.374 6.40364 105.68 7.09936 106.036 7.74329C106.348 8.47486 106.542 9.24238 106.614 10.0229C106.704 10.6447 106.673 11.2757 106.523 11.8881C106.249 13.0276 105.876 14.1462 105.408 15.2336H105.342C105.342 15.2336 87.3137 30.7248 86.0083 31.8276C84.8433 32.8194 61.4121 30.6508 56.7109 30.2067C55.1135 29.9973 53.5003 29.8983 51.8859 29.9106C49.8451 29.9921 49.4816 30.2511 47.4491 30.2733C42.3163 30.3244 37.1953 30.7277 32.1312 31.4798C29.8382 31.829 27.6963 32.7357 25.9392 34.1009C24.1821 35.4662 22.8773 37.2375 22.1672 39.2217C17.433 52.4703 6.7088 83.8302 4.81678 101.446C3.38708 103.768 2.09637 106.157 0.950133 108.603C-0.380063 111.845 -0.0578419 111.956 0.388311 112.03C1.59458 112.23 2.96608 106.412 3.47833 107.818C3.99058 109.225 0.875776 114.753 2.13987 114.916C3.79229 115.124 5.10596 108.995 5.26294 108.507C5.41992 108.018 6.23787 108.174 6.08915 108.632C5.84955 109.284 3.5279 116.189 5.14727 116.411C6.03958 116.53 6.13872 115.072 6.13872 115.072C6.13872 115.072 7.79114 108.462 8.54299 108.595C9.29484 108.729 8.49341 112.629 8.11336 113.932C7.7333 115.235 8.26207 115.893 9.03871 115.575C9.56748 115.353 10.8316 111.393 11.1786 110.105C11.5256 108.818 12.3931 105.25 13.5581 107.315C14.723 109.38 16.4911 110.579 17.2182 110.609C17.382 110.592 17.5364 110.531 17.6616 110.435C17.7867 110.339 17.8769 110.211 17.9204 110.069C17.964 109.926 17.9589 109.775 17.9059 109.636C17.8529 109.496 17.7544 109.373 17.623 109.284C16.9977 108.737 16.4609 108.114 16.0284 107.433C15.643 106.903 15.3635 106.317 15.2022 105.702C14.8693 104.474 14.6755 103.219 14.6239 101.956L14.4917 101.216C16.3424 93.008 21.6714 68.9163 29.3634 53.5287L32.5196 59.3462L33.8911 63.6539L25.4803 82.2537L61.3542 81.8318L56.0004 63.3726L62.5027 44.1288C69.5337 44.2695 87.5864 44.5063 90.5938 43.2851C94.3778 41.8048 113.951 19.6596 113.951 19.6596C115.227 18.7715 116.448 17.8228 117.611 16.8175C117.611 16.8175 118.801 15.9219 118.082 15.2558Z" fill="#FFBE9D"/>
<path id="Vector_16" d="M23.9023 68.5092C24.9434 65.3266 30.2889 49.5911 30.2889 49.5911C30.2889 49.5911 32.9163 62.4178 32.2223 63.9647C31.5839 65.289 30.8297 66.566 29.9667 67.7839C23.9023 76.0513 24.6955 80.1887 24.6955 80.1887L61.3378 79.1895C61.4205 74.6006 58.3883 63.9277 57.7604 62.2254C57.1324 60.523 59.2227 54.9498 59.2227 54.9498C59.2227 54.9498 63.3538 51.1824 63.2051 49.2432C63.1266 47.5013 62.8862 45.7683 62.4863 44.0622L84.7939 44.8024L84.0916 31.2577L52.0513 28.3859C50.9359 31.2059 40.8479 29.8218 40.8479 29.8218C29.9584 30.1475 29.281 31.9386 24.7533 35.0917C20.2257 38.2447 12.732 65.3044 12.732 65.3044L23.9023 68.5092Z" fill="#4882FD"/>
<path id="Vector_17" d="M45.5656 65.3044C44.9306 65.406 44.2838 65.4359 43.6405 65.3932C42.4425 65.3932 40.7984 65.3192 38.989 65.1563C37.1796 64.9935 35.5437 64.7641 34.3787 64.5568C33.7364 64.4827 33.1065 64.3386 32.5032 64.1276C33.1492 64.1278 33.7937 64.1823 34.4283 64.2904C35.6015 64.4236 37.2291 64.6086 39.0303 64.7715C40.8314 64.9343 42.4673 65.0453 43.6488 65.1193C44.2928 65.1266 44.9346 65.1886 45.5656 65.3044Z" fill="#263238"/>
<path id="Vector_18" d="M48.0771 62.514C47.4419 62.7928 46.7702 62.9992 46.0777 63.1284C42.7814 63.9043 39.3806 64.2655 35.9732 64.2016C35.2681 64.2221 34.5629 64.1624 33.8746 64.0239C34.5705 63.9452 35.272 63.9131 35.9732 63.9277C37.2703 63.8907 39.055 63.8093 41.0213 63.6021C42.9877 63.3948 44.7393 63.0988 45.9786 62.8619C46.6669 62.6972 47.3686 62.5809 48.0771 62.514Z" fill="#263238"/>
<path id="Vector_19" d="M60.4041 50.0648C60.3874 50.6291 60.3015 51.19 60.148 51.7375C59.9331 52.7663 59.6027 54.1726 59.1813 55.7121C58.7599 57.2516 58.3551 58.6727 57.9915 59.6349C57.8454 60.1856 57.6291 60.7196 57.3471 61.2262C57.3931 60.6636 57.5095 60.1075 57.6941 59.5683C58.0081 58.4136 58.3633 57.0814 58.7599 55.6233C59.1565 54.1652 59.5366 52.8329 59.8505 51.6783C59.9624 51.1226 60.1482 50.5809 60.4041 50.0648Z" fill="#263238"/>
<path id="Vector_20" d="M24.2907 66.6219C22.3793 66.3574 20.4929 65.964 18.6477 65.445C16.7621 65.0501 14.9119 64.5305 13.1121 63.8907C15.0225 64.1594 16.9085 64.5528 18.7551 65.0675C20.641 65.4611 22.4914 65.9806 24.2907 66.6219Z" fill="#263238"/>
<path id="Vector_21" d="M62.8827 43.8994C62.5711 43.9474 62.2525 43.9474 61.9408 43.8994C61.0778 43.8201 60.2305 43.6384 59.4209 43.3591C58.0693 42.9041 56.8389 42.2009 55.8088 41.2946C54.7786 40.3883 53.9714 39.299 53.4392 38.0966C52.8508 36.774 52.5996 35.3504 52.7038 33.9296C52.7407 32.7578 53.1319 31.6169 53.8357 30.6286C54.3308 29.9628 55.0703 29.4732 55.926 29.2445C56.1547 29.188 56.3911 29.1606 56.6283 29.1631C56.7936 29.1631 56.8762 29.1631 56.8762 29.1631C56.8762 29.1631 56.5292 29.1631 55.9756 29.3629C55.1905 29.6228 54.5247 30.1098 54.0836 30.747C52.96 32.3309 52.646 35.2249 53.844 37.9264C54.4016 39.2002 55.2745 40.3441 56.397 41.2719C57.3167 42.0311 58.3761 42.642 59.5283 43.0778C60.6096 43.4606 61.7344 43.7361 62.8827 43.8994Z" fill="#263238"/>
<path id="Vector_22" d="M82.142 44.5359C81.9353 42.2662 81.8691 39.988 81.9437 37.7118C81.879 35.4374 81.9562 33.1617 82.175 30.895C82.3819 33.1623 82.4481 35.438 82.3733 37.7118C82.4428 39.9886 82.3656 42.2671 82.142 44.5359Z" fill="#263238"/>
<path id="Vector_23" d="M51.8364 29.2149C51.9273 27.5644 52.1173 25.6992 52.1173 25.6992C52.1173 25.6992 56.678 25.2477 56.9506 21.0289C57.2233 16.8101 56.9506 7.07716 56.9506 7.07716L48.6886 3.28762L39.5176 9.74909L40.9305 30.8432L49.3413 31.3243C49.9842 31.3403 50.6079 31.1271 51.0756 30.7317C51.5434 30.3363 51.817 29.7908 51.8364 29.2149Z" fill="#FFBE9D"/>
<path id="Vector_24" d="M52.6544 17.6908C52.6544 17.6908 52.6544 17.7723 52.5801 17.8685C52.5186 17.9383 52.4391 17.9936 52.3484 18.0297C52.2577 18.0658 52.1586 18.0816 52.0596 18.0757C51.5308 18.0757 51.0185 17.528 50.8368 16.8915C50.7504 16.5829 50.7504 16.2601 50.8368 15.9515C50.8537 15.8168 50.9079 15.6881 50.9945 15.5769C51.0811 15.4658 51.1972 15.3757 51.3325 15.315C51.4436 15.2739 51.5684 15.2739 51.6795 15.315C51.7619 15.3516 51.8286 15.4114 51.8695 15.4852C51.9274 15.611 51.8695 15.6925 51.8695 15.6851C51.8695 15.6777 51.8695 15.611 51.7869 15.537C51.7437 15.484 51.6802 15.4471 51.6086 15.4335C51.5369 15.4198 51.4621 15.4303 51.3986 15.463C51.2972 15.5179 51.213 15.5949 51.1538 15.6867C51.0946 15.7786 51.0623 15.8824 51.0598 15.9885C50.9903 16.2638 50.9903 16.5496 51.0598 16.8249C51.2251 17.4022 51.6712 17.8685 52.0678 17.9129C52.1454 17.9223 52.2243 17.9173 52.2997 17.8982C52.375 17.8791 52.4451 17.8463 52.5057 17.8019C52.6048 17.7427 52.6379 17.6834 52.6544 17.6908Z" fill="#EB996E"/>
<path id="Vector_25" d="M59.7847 4.79752C59.1485 2.85834 56.8434 1.89615 54.7448 1.36325C51.5474 0.549087 48.0938 0.193816 44.9707 1.22262C41.8477 2.25142 38.0967 4.05737 38.0967 7.14378C36.2542 7.01055 35.1967 8.45384 34.4696 10.245C34.0048 11.3362 33.7262 12.484 33.6434 13.6497C33.4121 17.6909 32.148 23.2716 29.2232 26.2321C27.5708 27.8827 25.2822 29.0225 24.3403 31.0801C23.5141 32.8638 23.9437 34.9806 23.1753 36.7866C22.4896 38.3779 20.9776 39.5103 19.8705 40.8944C18.7426 42.4645 18.0788 44.2658 17.9415 46.1289C17.8042 47.992 18.1979 49.8558 19.0856 51.5451C19.9797 53.1911 21.2385 54.6568 22.7854 55.8529C24.3322 57.0491 26.1347 57.9505 28.083 58.5025C31.9423 59.5543 36.0577 59.5902 39.9391 58.6061C42.8521 57.9821 45.5695 56.7751 47.8873 55.0756C50.2588 53.3407 51.8876 50.9245 52.4975 48.2366C53.0841 45.2169 52.1422 42.1453 51.4399 39.1403C49.2422 29.6442 49.8701 29.1483 52.6462 20.3332C52.7123 20.1777 52.7454 20.0149 52.7949 19.8595C52.8445 19.7041 52.8693 19.63 52.9023 19.5116C52.9812 19.1632 53.0227 18.8087 53.0263 18.4532C52.6208 18.5883 52.1807 18.6169 51.7577 18.5356C51.3347 18.4543 50.9465 18.2665 50.6385 17.9943C50.3299 17.7041 50.1147 17.3444 50.0158 16.9535C49.9168 16.5626 49.9379 16.155 50.0767 15.7739C50.2716 15.3571 50.5621 14.9816 50.9293 14.6718C51.2965 14.362 51.7322 14.1247 52.2083 13.9753C53.1254 13.6349 54.1086 13.4572 55.0092 13.0797C56.9177 12.2656 58.2396 10.5781 59.1402 8.80911C59.8806 7.58308 60.1091 6.16082 59.7847 4.79752Z" fill="#263238"/>
<path id="Vector_26" d="M52.9848 17.8907C53.1594 18.1217 53.3035 18.3701 53.4144 18.6308C53.6623 19.0971 53.9928 19.7559 54.3563 20.5182L54.4224 20.6588H54.2489L53.4227 20.7254C52.8526 20.7254 52.3734 20.8217 51.8116 20.8143C51.7626 20.8044 51.7173 20.7836 51.6798 20.7539C51.6422 20.7241 51.6136 20.6863 51.5968 20.644C51.5722 20.5767 51.5722 20.5041 51.5968 20.4368C51.6159 20.337 51.6407 20.2382 51.6711 20.1407L51.8198 19.6152C51.8946 19.2647 52.0109 18.9222 52.1668 18.5938C52.1515 18.9512 52.0933 19.306 51.9933 19.6522L51.8777 20.1777C51.8364 20.3554 51.762 20.6292 51.8777 20.607C52.2908 20.607 52.8774 20.5256 53.4227 20.496L54.2489 20.4294L54.1415 20.5922C53.7862 19.8521 53.4888 19.1563 53.3153 18.6752C53.1631 18.4295 53.0517 18.1652 52.9848 17.8907Z" fill="#4882FD"/>
<path id="Vector_27" d="M24.6956 80.1887L61.3379 79.1895L77.2838 134.952L74.3507 198.915H54.9761L57.3474 136.314L43.1779 97.4933L45.3591 201.395L25.7779 201.654L23.7207 103.992C23.6298 101.275 22.6383 95.1544 23.0101 92.4603L24.6956 80.1887Z" fill="#263238"/>
<path id="Vector_28" d="M48.0526 98.2853C47.4529 98.3191 46.8507 98.2868 46.2598 98.189C45.1526 98.0706 43.6407 97.8634 41.98 97.5673C40.3193 97.2713 38.8321 96.9308 37.7581 96.657C37.1839 96.5439 36.6285 96.3648 36.1057 96.124C36.1057 96.013 38.7991 96.5903 42.1039 97.1899C45.4088 97.7894 48.0691 98.1742 48.0526 98.2853Z" fill="#455A64"/>
<path id="Vector_29" d="M74.1524 195.407C74.1524 195.511 69.7652 195.6 64.3536 195.6C58.9419 195.6 54.5464 195.511 54.5464 195.407C54.5464 195.303 58.9336 195.215 64.3536 195.215C69.7735 195.215 74.1524 195.296 74.1524 195.407Z" fill="#455A64"/>
<path id="Vector_30" d="M45.1854 198.693C45.1854 198.804 40.9222 198.886 35.6675 198.886C30.4128 198.886 26.1578 198.804 26.1578 198.693C26.1578 198.582 30.4211 198.501 35.6675 198.501C40.9139 198.501 45.1854 198.59 45.1854 198.693Z" fill="#455A64"/>
<path id="Vector_31" d="M42.6575 198.427C42.5419 198.427 42.0296 175.727 41.5091 147.727C40.9886 119.727 40.6829 97.0122 40.7903 97.0122C40.8977 97.0122 41.4265 119.705 41.9388 147.72C42.451 175.734 42.7815 198.427 42.6575 198.427Z" fill="#455A64"/>
<path id="Vector_32" d="M71.5501 195.407C71.541 195.306 71.541 195.205 71.5501 195.104V194.215C71.5501 193.416 71.6162 192.269 71.6657 190.811C71.7814 187.85 71.9466 183.55 72.1532 178.28C72.5993 167.681 73.2273 153.071 73.913 136.943C73.913 136.788 73.913 136.64 73.913 136.506V136.558C69.5754 121.015 65.6509 106.908 62.8005 96.7014L59.4957 84.6296C59.1156 83.2159 58.8264 82.1131 58.6199 81.3433C58.5208 80.9807 58.4547 80.6994 58.3968 80.4848C58.3646 80.3885 58.3452 80.2891 58.339 80.1887C58.3819 80.282 58.4151 80.3786 58.4381 80.4774C58.5042 80.6846 58.5868 80.9659 58.7025 81.3211C58.9256 82.0613 59.2478 83.1863 59.6609 84.5926C60.4871 87.4495 61.6521 91.5647 63.1062 96.6347C65.9814 106.834 69.9472 120.904 74.3426 136.469V136.521C74.3426 136.654 74.3426 136.81 74.3426 136.958C73.6073 153.086 72.9381 167.689 72.4506 178.288C72.1945 183.565 71.9797 187.835 71.831 190.811C71.7483 192.291 71.6823 193.416 71.6409 194.215C71.6409 194.593 71.5914 194.889 71.5831 195.104C71.5843 195.206 71.5733 195.307 71.5501 195.407Z" fill="#455A64"/>
<path id="Vector_33" d="M65.2292 135.204C63.8376 135.614 62.4039 135.899 60.9494 136.055C59.1648 136.329 57.6446 136.521 56.9588 136.551V136.403C57.1819 136.462 57.2976 136.499 57.2976 136.529C57.2976 136.558 57.1571 136.529 56.9258 136.529H56.4301L56.9258 136.395C57.5702 136.225 59.0904 135.944 60.8751 135.655C62.3064 135.377 63.7648 135.226 65.2292 135.204Z" fill="#455A64"/>
<path id="Vector_34" d="M64.8906 137.328C63.6019 137.381 62.3105 137.329 61.0322 137.172C59.7417 137.149 58.456 137.022 57.1904 136.795C59.7724 136.606 62.3716 136.786 64.8906 137.328Z" fill="#455A64"/>
<path id="Vector_35" opacity="0.2" d="M24.5384 81.3655C24.9724 81.8647 25.5189 82.2763 26.1425 82.5735C26.7661 82.8707 27.4525 83.0467 28.1572 83.0901C29.6329 83.2467 31.1257 83.2218 32.5939 83.0161C42.054 82.0761 52.0759 81.2101 61.3377 79.1895C49.3494 79.789 36.6837 79.5892 24.6954 80.1887L24.5714 81.1065" fill="black"/>
<g id="Group" opacity="0.2">
<path id="Vector_36" d="M36.8902 96.5015L43.6486 119.994L43.1776 97.4933L36.8902 96.5015Z" fill="black"/>
</g>
</g>
</svg>
