<svg width="35" height="35" viewBox="0 0 35 35" fill="none" xmlns="http://www.w3.org/2000/svg">
<g id="healthicons:money-bag-outline">
<g id="Group">
<path id="Vector" fill-rule="evenodd" clip-rule="evenodd" d="M20.9794 17.9864C20.7783 17.4176 20.4058 16.9252 19.9132 16.577C19.4207 16.2287 18.8323 16.0417 18.229 16.0417V15.3125H16.7707V16.0417C15.9971 16.0417 15.2553 16.349 14.7083 16.8959C14.1613 17.4429 13.854 18.1848 13.854 18.9583C13.854 19.7319 14.1613 20.4737 14.7083 21.0207C15.2553 21.5677 15.9971 21.875 16.7707 21.875V24.7917C16.1363 24.7917 15.596 24.387 15.3947 23.8197C15.3649 23.7269 15.3167 23.641 15.2531 23.5671C15.1894 23.4932 15.1117 23.4329 15.0243 23.3896C14.9369 23.3463 14.8418 23.321 14.7444 23.3151C14.6471 23.3093 14.5496 23.323 14.4577 23.3555C14.3658 23.388 14.2813 23.4385 14.2092 23.5042C14.1372 23.5699 14.0791 23.6494 14.0383 23.738C13.9975 23.8265 13.9749 23.9224 13.9718 24.0198C13.9687 24.1173 13.9852 24.2143 14.0203 24.3053C14.2214 24.874 14.5939 25.3664 15.0864 25.7147C15.579 26.063 16.1674 26.25 16.7707 26.25V26.9792H18.229V26.25C19.0026 26.25 19.7444 25.9427 20.2914 25.3957C20.8384 24.8487 21.1457 24.1069 21.1457 23.3333C21.1457 22.5598 20.8384 21.8179 20.2914 21.2709C19.7444 20.724 19.0026 20.4167 18.229 20.4167V17.5C18.5306 17.4999 18.8248 17.5934 19.0711 17.7674C19.3174 17.9415 19.5036 18.1877 19.6042 18.472C19.6686 18.6543 19.8028 18.8037 19.9773 18.8871C20.0637 18.9284 20.1574 18.9523 20.253 18.9573C20.3486 18.9624 20.4443 18.9487 20.5346 18.9168C20.6249 18.8849 20.7081 18.8355 20.7793 18.7715C20.8505 18.7075 20.9084 18.6301 20.9497 18.5437C20.991 18.4573 21.0149 18.3636 21.02 18.268C21.0251 18.1723 21.0113 18.0767 20.9794 17.9864ZM16.7707 17.5C16.3839 17.5 16.013 17.6536 15.7395 17.9271C15.466 18.2006 15.3123 18.5716 15.3123 18.9583C15.3123 19.3451 15.466 19.716 15.7395 19.9895C16.013 20.263 16.3839 20.4167 16.7707 20.4167V17.5ZM18.229 24.7917C18.6158 24.7917 18.9867 24.638 19.2602 24.3645C19.5337 24.091 19.6873 23.7201 19.6873 23.3333C19.6873 22.9466 19.5337 22.5756 19.2602 22.3021C18.9867 22.0286 18.6158 21.875 18.229 21.875V24.7917Z" fill="white"/>
<path id="Vector_2" fill-rule="evenodd" clip-rule="evenodd" d="M9.59055 6.28615C11.3799 5.41042 14.3155 4.375 17.5283 4.375C20.6739 4.375 23.5322 5.3674 25.3121 6.23146L25.4127 6.28031C25.9494 6.54573 26.3825 6.79656 26.6873 7L23.9938 10.9375C30.2034 17.2856 34.9998 30.6228 17.5283 30.6228C0.0566998 30.6228 4.72409 17.5277 10.9876 10.9375L8.31159 7C8.51795 6.8651 8.77972 6.70833 9.0918 6.54208C9.24638 6.45896 9.41263 6.37365 9.59055 6.28687V6.28615ZM22.2627 10.885L24.4189 7.73281C22.4137 7.87719 20.0278 8.34823 17.731 9.01323C16.0903 9.48719 14.2674 9.415 12.5794 9.10364C12.154 9.02478 11.7316 8.93091 11.3128 8.82219L12.7128 10.8835C15.7134 11.9518 19.2615 11.9518 22.2627 10.885ZM11.8707 12.126C15.3816 13.4823 19.6013 13.4823 23.1122 12.1246C24.5777 13.6695 25.8037 15.4251 26.7493 17.333C27.7351 19.3441 28.2718 21.3544 28.1843 23.0869C28.0997 24.7588 27.442 26.1873 25.9399 27.249C24.3744 28.3551 21.7414 29.1645 17.5275 29.1645C13.3093 29.1645 10.6639 28.3689 9.08378 27.2752C7.57076 26.2267 6.90649 24.8179 6.81243 23.1685C6.71399 21.455 7.23899 19.4549 8.22118 17.43C9.15815 15.4992 10.4656 13.6405 11.8707 12.126ZM11.0321 7.23042C11.6154 7.40396 12.225 7.55489 12.8434 7.66937C14.4111 7.95812 15.9832 8.00042 17.3248 7.61177C18.8883 7.15629 20.4785 6.79807 22.0863 6.53917C20.7446 6.13521 19.1754 5.83333 17.5275 5.83333C15.0155 5.83333 12.6727 6.53406 11.0321 7.23042Z" fill="white"/>
</g>
</g>
</svg>
