<svg width="23" height="24" viewBox="0 0 23 24" fill="none" xmlns="http://www.w3.org/2000/svg">
<path id="Vector" d="M21.9167 14.712L20.2016 13.2456C20.2828 12.7481 20.3247 12.2401 20.3247 11.7321C20.3247 11.2241 20.2828 10.7161 20.2016 10.2186L21.9167 8.75229C22.0461 8.64154 22.1387 8.49404 22.1822 8.3294C22.2257 8.16475 22.218 7.99077 22.1602 7.83058L22.1367 7.7625C21.6645 6.44285 20.9575 5.21952 20.0497 4.15161L20.0026 4.09662C19.8925 3.96714 19.7457 3.87406 19.5817 3.82966C19.4176 3.78525 19.2439 3.7916 19.0835 3.84786L16.9547 4.60461C16.1691 3.96046 15.292 3.45247 14.3441 3.09636L13.933 0.870646C13.9019 0.703174 13.8207 0.549103 13.7 0.428902C13.5794 0.308701 13.425 0.228061 13.2574 0.197696L13.1867 0.184603C11.8225 -0.0615344 10.3875 -0.0615344 9.0233 0.184603L8.95261 0.197696C8.78501 0.228061 8.63063 0.308701 8.50996 0.428902C8.38929 0.549103 8.30805 0.703174 8.27704 0.870646L7.86332 3.10683C6.92299 3.46302 6.04731 3.97074 5.27102 4.60984L3.12648 3.84786C2.96614 3.79115 2.79233 3.78458 2.62817 3.82901C2.464 3.87344 2.31724 3.96678 2.20739 4.09662L2.16026 4.15161C1.2536 5.22027 0.546682 6.4434 0.0733229 7.7625L0.0497565 7.83058C-0.0680753 8.15789 0.0288087 8.52448 0.293276 8.75229L2.02933 10.2343C1.94816 10.7266 1.90888 11.2294 1.90888 11.7295C1.90888 12.2323 1.94816 12.735 2.02933 13.2247L0.293276 14.7067C0.163911 14.8175 0.0713235 14.965 0.027824 15.1296C-0.0156755 15.2943 -0.00802566 15.4682 0.0497565 15.6284L0.0733229 15.6965C0.547269 17.0162 1.24902 18.2338 2.16026 19.3074L2.20739 19.3624C2.31751 19.4919 2.46427 19.5849 2.62834 19.6293C2.79241 19.6738 2.96609 19.6674 3.12648 19.6111L5.27102 18.8492C6.05132 19.4907 6.92328 19.9987 7.86332 20.3522L8.27704 22.5884C8.30805 22.7558 8.38929 22.9099 8.50996 23.0301C8.63063 23.1503 8.78501 23.2309 8.95261 23.2613L9.0233 23.2744C10.4001 23.5219 11.8099 23.5219 13.1867 23.2744L13.2574 23.2613C13.425 23.2309 13.5794 23.1503 13.7 23.0301C13.8207 22.9099 13.9019 22.7558 13.933 22.5884L14.3441 20.3626C15.2916 20.0075 16.1737 19.4978 16.9547 18.8544L19.0835 19.6111C19.2439 19.6679 19.4177 19.6744 19.5818 19.63C19.746 19.5856 19.8928 19.4922 20.0026 19.3624L20.0497 19.3074C20.961 18.2312 21.6627 17.0162 22.1367 15.6965L22.1602 15.6284C22.2781 15.3064 22.1812 14.9398 21.9167 14.712ZM18.3425 10.5276C18.408 10.923 18.442 11.3289 18.442 11.7347C18.442 12.1406 18.408 12.5465 18.3425 12.9419L18.1697 13.9919L20.1257 15.6651C19.8292 16.3482 19.4549 16.9949 19.0102 17.5923L16.5803 16.7308L15.758 17.4064C15.1322 17.9196 14.4357 18.3228 13.6816 18.6056L12.6839 18.9801L12.2152 21.52C11.4757 21.6038 10.7291 21.6038 9.98952 21.52L9.52082 18.9748L8.53103 18.5952C7.78476 18.3124 7.09086 17.9091 6.47028 17.3985L5.64808 16.7203L3.20241 17.5897C2.75727 16.99 2.38545 16.3433 2.08694 15.6625L4.06389 13.9735L3.89369 12.9262C3.83085 12.536 3.79681 12.1327 3.79681 11.7347C3.79681 11.3341 3.82823 10.9335 3.89369 10.5433L4.06389 9.49593L2.08694 7.80701C2.38283 7.12359 2.75727 6.47944 3.20241 5.87981L5.64808 6.74914L6.47028 6.07096C7.09086 5.56035 7.78476 5.15711 8.53103 4.87431L9.52343 4.49987L9.99214 1.9547C10.7279 1.87091 11.4794 1.87091 12.2179 1.9547L12.6866 4.49463L13.6842 4.86907C14.4357 5.15187 15.1348 5.55512 15.7607 6.06834L16.5829 6.74391L19.0128 5.88243C19.458 6.48206 19.8298 7.12882 20.1283 7.80963L18.1723 9.48284L18.3425 10.5276ZM11.1076 6.86436C8.56245 6.86436 6.49908 8.92772 6.49908 11.4729C6.49908 14.0181 8.56245 16.0814 11.1076 16.0814C13.6528 16.0814 15.7162 14.0181 15.7162 11.4729C15.7162 8.92772 13.6528 6.86436 11.1076 6.86436ZM13.1815 13.5467C12.9095 13.8195 12.5862 14.0358 12.2303 14.1832C11.8744 14.3306 11.4928 14.4062 11.1076 14.4056C10.3247 14.4056 9.5889 14.0992 9.03378 13.5467C8.76099 13.2747 8.54468 12.9515 8.39728 12.5956C8.24989 12.2397 8.17432 11.8581 8.17492 11.4729C8.17492 10.69 8.48128 9.95417 9.03378 9.39905C9.5889 8.84393 10.3247 8.54019 11.1076 8.54019C11.8905 8.54019 12.6263 8.84393 13.1815 9.39905C13.4542 9.67105 13.6706 9.99431 13.818 10.3502C13.9654 10.7061 14.0409 11.0877 14.0403 11.4729C14.0403 12.2558 13.734 12.9916 13.1815 13.5467Z" fill="white"/>
</svg>
